<?xml version="1.0" encoding="UTF-8" standalone="no"?>
<svg
   xmlns:dc="http://purl.org/dc/elements/1.1/"
   xmlns:cc="http://creativecommons.org/ns#"
   xmlns:rdf="http://www.w3.org/1999/02/22-rdf-syntax-ns#"
   xmlns:svg="http://www.w3.org/2000/svg"
   xmlns="http://www.w3.org/2000/svg"
   xmlns:sodipodi="http://sodipodi.sourceforge.net/DTD/sodipodi-0.dtd"
   xmlns:inkscape="http://www.inkscape.org/namespaces/inkscape"
   viewBox="0 0 20 20"
   version="1.1"
   id="svg8"
   sodipodi:docname="app-dark.svg"
   inkscape:version="0.92.5 (2060ec1f9f, 2020-04-08)">
  <metadata
     id="metadata14">
    <rdf:RDF>
      <cc:Work
         rdf:about="">
        <dc:format>image/svg+xml</dc:format>
        <dc:type
           rdf:resource="http://purl.org/dc/dcmitype/StillImage" />
      </cc:Work>
    </rdf:RDF>
  </metadata>
  <defs
     id="defs12" />
  <sodipodi:namedview
     pagecolor="#ffffff"
     bordercolor="#666666"
     borderopacity="1"
     objecttolerance="10"
     gridtolerance="10"
     guidetolerance="10"
     inkscape:pageopacity="0"
     inkscape:pageshadow="2"
     inkscape:window-width="1920"
     inkscape:window-height="1051"
     id="namedview10"
     showgrid="false"
     inkscape:zoom="11.8"
     inkscape:cx="0.55084746"
     inkscape:cy="10"
     inkscape:window-x="0"
     inkscape:window-y="-37"
     inkscape:window-maximized="1"
     inkscape:current-layer="g6" />
  <g
     id="g6">
    <path
       d="M 10 0 A 10 10 0 0 0 0 10 A 10 10 0 0 0 10 20 A 10 10 0 0 0 20 10 A 10 10 0 0 0 10 0 z M 10.757812 3.9921875 A 0.31 0.31 0 0 1 10.820312 4 L 13.269531 4.4902344 A 1 1 0 1 1 13.140625 5.0996094 L 11 4.6503906 L 10.349609 7.7695312 A 7.12 7.12 0 0 1 14.199219 9 A 1.46 1.46 0 0 1 16.669922 10 A 1.46 1.46 0 0 1 15.859375 11.330078 A 2.87 2.87 0 0 1 15.859375 11.769531 C 15.859375 14.009531 13.249297 15.830078 10.029297 15.830078 C 6.8092969 15.830078 4.1992188 14.009531 4.1992188 11.769531 A 2.87 2.87 0 0 1 4.1992188 11.330078 A 1.46 1.46 0 1 1 5.8105469 8.9394531 A 7.14 7.14 0 0 1 9.7109375 7.7109375 L 10.449219 4.2402344 A 0.31 0.31 0 0 1 10.757812 3.9921875 z M 7.6992188 10 A 1 1 0 0 0 6.6699219 11 A 1 1 0 0 0 7.6699219 12 A 1 1 0 0 0 7.6992188 10 z M 12.257812 10.041016 A 1 1 0 0 0 12.300781 12.039062 L 12.289062 12.080078 A 1 1 0 0 0 13.300781 11.039062 A 1 1 0 0 0 12.257812 10.041016 z M 7.7324219 13.308594 A 0.27 0.27 0 0 0 7.5390625 13.75 A 3.84 3.84 0 0 0 10.009766 14.519531 A 3.84 3.84 0 0 0 12.480469 13.75 L 12.480469 13.789062 A 0.27932955 0.27932955 0 1 0 12.089844 13.390625 A 3.28 3.28 0 0 1 10 14 A 3.27 3.27 0 0 1 7.9199219 13.369141 A 0.27 0.27 0 0 0 7.7324219 13.308594 z "
       id="circle2"
       style="fill:#000000;fill-opacity:1" />
  </g>
</svg>
